#!OML:ASF X:\für Bonn\!DataBase\2005_08_11_Bastian_Final\c3d\Bastian.ASF
:FULLY-SPECIFIED
:DEGREES
106
root 4.45208 17.5822 -5.63214 147.244 20.2562 -187.301
lowerback 29.3719 -3.66328 1.4755
upperback 15.324 -0.404669 -6.20635
thorax 1.12798 2.02622 -7.61763
lowerneck -11.731 -2.91613 -5.81263
upperneck -2.82796 -2.791 1.96065
head 1.22525 -1.14876 1.49609
rclavicle 2.68359e-015 -3.57812e-015
rhumerus -49.0382 30.1757 -106.053
rradius 109.513
rwrist 0.218224
rhand -11.3283 10.0904
rfingers 7.12502
rthumb 14.7043 -19.3681
lclavicle 2.68359e-015 -3.57812e-015
lhumerus -19.1032 -19.9472 86.6822
lradius 120.16
lwrist 32.0078
lhand -7.57595 -24.4238
lfingers 7.12502
lthumb 18.3168 4.73376
rfemur 22.3337 2.59266 18.5318
rtibia 36.7518
rfoot -10.3231 7.05239
rtoes 6.86975
lfemur -63.9178 27.0313 -19.5591
ltibia 101.088
lfoot 9.16611 -5.9336
ltoes -27.647
107
root 4.45267 17.5759 -5.66508 148.118 20.4425 -186.966
lowerback 28.6667 -3.61089 1.70961
upperback 15.0466 -0.478788 -5.97048
thorax 1.10007 1.89264 -7.45015
lowerneck -11.8253 -2.7918 -5.84154
upperneck -2.97024 -2.61112 2.21528
head 1.19461 -1.04742 1.59261
rclavicle -3.79679e-014 -1.51076e-014
rhumerus -50.2847 29.168 -105.831
rradius 109.551
rwrist 0.309871
rhand -11.4212 9.79181
rfingers 7.12502
rthumb 14.6147 -19.6732
lclavicle -3.79679e-014 -1.51076e-014
lhumerus -19.6161 -20.4586 87.1695
lradius 120.105
lwrist 31.5553
lhand -7.45357 -24.5265
lfingers 7.12502
lthumb 18.4346 4.62
rfemur 21.7232 2.56682 18.8785
rtibia 36.7223
rfoot -10.875 6.95123
rtoes 6.59531
lfemur -61.2978 26.5681 -18.8362
ltibia 101.417
lfoot 8.39722 -5.8051
ltoes -28.276
108
root 4.45257 17.5637 -5.70108 148.982 20.6601 -186.629
lowerback 27.9408 -3.55501 1.94643
upperback 14.7815 -0.542708 -5.72766
thorax 1.10331 1.76891 -7.28092
lowerneck -11.9404 -2.66174 -5.86968
upperneck -3.09876 -2.42117 2.46446
head 1.17098 -0.941076 1.688
rclavicle -1.77912e-014 -6.40087e-014
rhumerus -51.3462 28.2199 -105.456
rradius 109.643
rwrist 0.352904
rhand -11.4855 9.39837
rfingers 7.12502
rthumb 14.5528 -20.0712
lclavicle -1.77912e-014 -6.40087e-014
lhumerus -20.1437 -20.9588 87.6711
lradius 120.07
lwrist 31.1469
lhand -7.41807 -24.5672
lfingers 7.12502
lthumb 18.4687 4.57606
rfemur 21.2096 2.58872 19.2605
rtibia 36.496
rfoot -11.2786 6.84398
rtoes 6.13555
lfemur -58.703 26.0641 -18.121
ltibia 101.617
lfoot 7.40029 -5.53106
ltoes -29.9732
109
root 4.4534 17.5515 -5.73866 149.815 20.8627 -186.318
lowerback 27.2228 -3.49209 2.13964
upperback 14.5098 -0.605627 -5.48956
thorax 1.10227 1.64606 -7.09484
lowerneck -11.9941 -2.53671 -5.90515
upperneck -3.24609 -2.24049 2.69621
head 1.13017 -0.840062 1.77889
rclavicle 3.15074e-014 6.24184e-014
rhumerus -52.3162 27.3593 -104.968
rradius 109.766
rwrist 0.331898
rhand -11.5718 8.89966
rfingers 7.12502
rthumb 14.4696 -20.5758
lclavicle 3.15074e-014 6.24184e-014
lhumerus -20.751 -21.4369 88.2207
lradius 120.085
lwrist 30.815
lhand -7.35757 -24.4891
lfingers 7.12502
lthumb 18.5269 4.64861
rfemur 20.7003 2.65011 19.6412
rtibia 36.3087
rfoot -11.6523 6.66525
rtoes 5.67497
lfemur -56.036 25.4554 -17.4185
ltibia 101.652
lfoot 6.5101 -5.08055
ltoes -31.2442
110
root 4.45965 17.6058 -5.76762 150.636 21.0615 -186.038
lowerback 26.4798 -3.42356 2.28083
upperback 14.247 -0.668164 -5.25811
thorax 1.1296 1.52534 -6.88785
lowerneck -12.0637 -2.40501 -5.94427
upperneck -3.35536 -2.05055 2.91942
head 1.10347 -0.735675 1.86842
rclavicle 4.39314e-014 3.10104e-014
rhumerus -53.1744 26.6011 -104.393
rradius 109.888
rwrist 0.260794
rhand -11.6865 8.47296
rfingers 7.12502
rthumb 14.3591 -21.0104
lclavicle 4.39314e-014 3.10104e-014
lhumerus -21.3323 -21.8926 88.7294
lradius 120.134
lwrist 30.5842
lhand -7.30796 -24.3277
lfingers 7.12502
lthumb 18.5746 4.80544
rfemur 20.2642 2.7435 20.0213
rtibia 35.9662
rfoot -11.9116 6.43938
rtoes 5.17316
lfemur -52.8148 24.7896 -16.694
ltibia 101.152
lfoot 5.84379 -4.5701
ltoes -31.7789
111
root 4.4615 17.6015 -5.80782 151.458 21.2698 -185.73
lowerback 25.7169 -3.36104 2.43168
upperback 13.9883 -0.734361 -5.00991
thorax 1.17595 1.40546 -6.66935
lowerneck -12.0892 -2.26557 -5.96824
upperneck -3.49281 -1.85327 3.10321
head 1.05802 -0.628367 1.94261
rclavicle -5.1684e-014 -3.26007e-014
rhumerus -53.9498 25.9459 -103.788
rradius 110.005
rwrist 0.196603
rhand -11.8035 7.98678
rfingers 7.12502
rthumb 14.2463 -21.5046
lclavicle -5.1684e-014 -3.26007e-014
lhumerus -21.8848 -22.3334 89.2503
lradius 120.197
lwrist 30.4763
lhand -7.19308 -24.1017
lfingers 7.12502
lthumb 18.6851 5.02089
rfemur 19.7957 2.85862 20.4301
rtibia 35.7166
rfoot -12.1546 6.17239
rtoes 4.75567
lfemur -50.113 23.9152 -16.0189
ltibia 100.763
lfoot 5.65724 -3.78743
ltoes -31.5834
